<svg width="25" height="21" viewBox="0 0 25 21" fill="none" xmlns="http://www.w3.org/2000/svg">
<path d="M15.3688 19.61L23.5824 11.7873C24.3348 11.0664 24.3348 9.89622 23.5824 9.17772L15.3688 1.35035C14.6101 0.629442 13.3821 0.633059 12.6234 1.35035C11.8723 2.07247 11.8723 3.23779 12.6234 3.95991L17.4285 8.53545L2.01437 8.53545C0.900866 8.53545 -1.90735e-05 9.39888 -1.90735e-05 10.4676C-1.90735e-05 11.535 0.900866 12.3997 2.01437 12.3997L17.4575 12.3997L12.6234 16.9993C11.8723 17.7202 11.8723 18.8868 12.6234 19.6077C13.3809 20.3298 14.6089 20.331 15.3688 19.6101V19.61Z" fill="white"/>
</svg>
